<svg width="32" height="33" viewBox="0 0 32 33" fill="none" xmlns="http://www.w3.org/2000/svg">
<path d="M16 0C18.1217 0 20.1566 0.869194 21.6569 2.41637C23.1571 3.96354 24 6.06196 24 8.25C24 10.438 23.1571 12.5365 21.6569 14.0836C20.1566 15.6308 18.1217 16.5 16 16.5C13.8783 16.5 11.8434 15.6308 10.3431 14.0836C8.84285 12.5365 8 10.438 8 8.25C8 6.06196 8.84285 3.96354 10.3431 2.41637C11.8434 0.869194 13.8783 0 16 0ZM16 20.625C24.84 20.625 32 24.3169 32 28.875V33H0V28.875C0 24.3169 7.16 20.625 16 20.625Z" fill="#1E2749"/>
</svg>
