<svg width="36" height="36" viewBox="0 0 36 36" fill="none" xmlns="http://www.w3.org/2000/svg">
<path d="M7.5 7.5C7.5 7.30109 7.57902 7.11032 7.71967 6.96967C7.86032 6.82902 8.05109 6.75 8.25 6.75H9.75C9.94891 6.75 10.1397 6.82902 10.2803 6.96967C10.421 7.11032 10.5 7.30109 10.5 7.5V9C10.5 9.19891 10.421 9.38968 10.2803 9.53033C10.1397 9.67098 9.94891 9.75 9.75 9.75H8.25C8.05109 9.75 7.86032 9.67098 7.71967 9.53033C7.57902 9.38968 7.5 9.19891 7.5 9V7.5Z" fill="#1E2749"/>
<path d="M1.5 18.75C1.5 18.3522 1.65804 17.9706 1.93934 17.6893C2.22064 17.408 2.60218 17.25 3 17.25H15C15.3978 17.25 15.7794 17.408 16.0607 17.6893C16.342 17.9706 16.5 18.3522 16.5 18.75V33.75C16.5 34.1478 16.342 34.5294 16.0607 34.8107C15.7794 35.092 15.3978 35.25 15 35.25H3C2.60218 35.25 2.22064 35.092 1.93934 34.8107C1.65804 34.5294 1.5 34.1478 1.5 33.75V18.75Z" fill="#DFDFDF"/>
<path d="M14.25 17.25H3.75L5.01 13.461C5.08799 13.259 5.22318 13.0842 5.39902 12.9579C5.57486 12.8317 5.78371 12.7594 6 12.75H12C12.2157 12.7601 12.4238 12.8327 12.5991 12.959C12.7743 13.0852 12.9091 13.2596 12.987 13.461L14.25 17.25Z" fill="#DFDFDF"/>
<path d="M16.5 18.75V33.75C16.5 34.1478 16.342 34.5294 16.0607 34.8107C15.7794 35.092 15.3978 35.25 15 35.25H9V17.25H15C15.3978 17.25 15.7794 17.408 16.0607 17.6893C16.342 17.9706 16.5 18.3522 16.5 18.75Z" fill="#1E2749"/>
<path d="M14.25 17.25H9V12.75H12C12.2157 12.7585 12.4242 12.8298 12.6001 12.955C12.7759 13.0802 12.9114 13.254 12.99 13.455L14.25 17.25Z" fill="#1E2749"/>
<path d="M31.5 4.49995C31.6165 4.04877 31.6264 3.57665 31.5288 3.12102C31.4311 2.66538 31.2287 2.23875 30.9375 1.87495C29.55 0.149946 26.4555 0.194946 25.137 3.62095L20.25 5.24995V11.2499L24.1215 12.5399C26.709 18.0899 33.1215 15.4679 31.503 11.9999C35.4855 11.3669 35.5365 5.30995 31.5 4.49995Z" fill="#1E2749"/>
<path d="M7.5 7.5C7.5 7.30109 7.57902 7.11032 7.71967 6.96967C7.86032 6.82902 8.05109 6.75 8.25 6.75H9.75C9.94891 6.75 10.1397 6.82902 10.2803 6.96967C10.421 7.11032 10.5 7.30109 10.5 7.5V9C10.5 9.19891 10.421 9.38968 10.2803 9.53033C10.1397 9.67098 9.94891 9.75 9.75 9.75H8.25C8.05109 9.75 7.86032 9.67098 7.71967 9.53033C7.57902 9.38968 7.5 9.19891 7.5 9V7.5Z" stroke="#1E2749" stroke-linecap="round" stroke-linejoin="round"/>
<path d="M9 9.75V12.75" stroke="#1E2749" stroke-linecap="round" stroke-linejoin="round"/>
<path d="M21 8.25H25.5" stroke="#1E2749" stroke-linecap="round" stroke-linejoin="round"/>
<path d="M20.25 11.25L24.75 12.75" stroke="#1E2749" stroke-linecap="round" stroke-linejoin="round"/>
<path d="M20.25 5.25L24.75 3.75" stroke="#1E2749" stroke-linecap="round" stroke-linejoin="round"/>
<path d="M28.5 15.7501C30.6615 15.7501 32.4405 14.0191 31.5 12.0001C35.4825 11.3671 35.5335 5.31006 31.5 4.50006C31.6168 4.04886 31.6268 3.57665 31.5293 3.1209C31.4318 2.66515 31.2294 2.23839 30.9383 1.87445C30.6471 1.51051 30.2752 1.21942 29.8519 1.02425C29.4287 0.829077 28.9658 0.7352 28.5 0.750061" stroke="#1E2749" stroke-linecap="round" stroke-linejoin="round"/>
<path d="M1.5 18.75C1.5 18.3522 1.65804 17.9706 1.93934 17.6893C2.22064 17.408 2.60218 17.25 3 17.25H15C15.3978 17.25 15.7794 17.408 16.0607 17.6893C16.342 17.9706 16.5 18.3522 16.5 18.75V33.75C16.5 34.1478 16.342 34.5294 16.0607 34.8107C15.7794 35.092 15.3978 35.25 15 35.25H3C2.60218 35.25 2.22064 35.092 1.93934 34.8107C1.65804 34.5294 1.5 34.1478 1.5 33.75V18.75Z" stroke="#1E2749" stroke-linecap="round" stroke-linejoin="round"/>
<path d="M14.25 17.25H3.75L5.01 13.461C5.08799 13.259 5.22318 13.0842 5.39902 12.9579C5.57486 12.8317 5.78371 12.7594 6 12.75H12C12.2157 12.7601 12.4238 12.8327 12.5991 12.959C12.7743 13.0852 12.9091 13.2596 12.987 13.461L14.25 17.25Z" stroke="#1E2749" stroke-linecap="round" stroke-linejoin="round"/>
</svg>
