<svg width="36" height="36" viewBox="0 0 36 36" fill="none" xmlns="http://www.w3.org/2000/svg">
<path d="M29.914 17.236L29.9125 17.2349L18.3609 5.68254C18.1907 5.51261 17.9598 5.41716 17.7193 5.41716C17.4789 5.41716 17.2483 5.51261 17.0782 5.68254L15.1846 7.57614L11.136 3.52758C10.9705 3.35306 10.7711 3.21409 10.5501 3.11914C10.329 3.0242 10.091 2.97527 9.85045 2.97534C8.86297 2.97498 8.06269 3.7785 8.06341 4.7703C8.0635 5.0138 8.11329 5.25473 8.20973 5.47831C8.30617 5.7019 8.44724 5.90345 8.62429 6.07062L12.6574 10.1044L2.83765 19.9238C2.66772 20.0939 2.57227 20.3245 2.57227 20.5649C2.57227 20.8054 2.66772 21.036 2.83765 21.2061L14.3904 32.7592C14.5605 32.9292 14.7911 33.0246 15.0316 33.0246C15.272 33.0246 15.5026 32.9292 15.6727 32.7592L15.6731 32.7589L29.914 18.5183C30.0839 18.3482 30.1794 18.1176 30.1794 17.8772C30.1794 17.6367 30.0839 17.4061 29.914 17.236ZM22.8205 20.5581H7.28365L17.7247 10.1167L25.4932 17.8855L22.8205 20.5581ZM32.7861 26.5445L30.6369 22.8225C30.6257 22.8016 30.6149 22.7804 30.6016 22.7609L30.5962 22.7519L30.5947 22.7527C30.5419 22.6791 30.473 22.6186 30.3932 22.5757C30.3134 22.5328 30.2249 22.5086 30.1344 22.5051C30.0439 22.5016 29.9538 22.5187 29.871 22.5553C29.7881 22.5918 29.7146 22.6467 29.6562 22.7159L29.6505 22.7127L29.6292 22.7498C29.5975 22.7913 29.5713 22.8366 29.5511 22.8848L27.4505 26.5226C27.023 27.0932 26.792 27.7871 26.792 28.5001C26.792 28.9358 26.8777 29.3673 27.0444 29.7699C27.2111 30.1725 27.4555 30.5383 27.7636 30.8464C28.0717 31.1545 28.4374 31.399 28.84 31.5657C29.2426 31.7324 29.6741 31.8182 30.1098 31.8182C30.5456 31.8182 30.9771 31.7324 31.3797 31.5657C31.7823 31.399 32.1481 31.1546 32.4562 30.8464C32.7643 30.5383 33.0087 30.1725 33.1755 29.7699C33.3422 29.3673 33.428 28.9358 33.4279 28.5001C33.4281 27.7964 33.2032 27.1112 32.7861 26.5445Z" fill="#1E2749"/>
</svg>
