<svg width="44" height="44" viewBox="0 0 44 44" fill="none" xmlns="http://www.w3.org/2000/svg">
<g id="Group">
<path id="Vector" d="M40.3333 31.1703C40.3325 33.6775 39.4755 36.1093 37.9042 38.063C36.3329 40.0167 34.1415 41.3752 31.6928 41.9137L30.5232 38.4047C31.5943 38.2283 32.6129 37.8164 33.5056 37.1989C34.3984 36.5813 35.143 35.7734 35.6858 34.8333H31.1667C30.1942 34.8333 29.2616 34.447 28.5739 33.7594C27.8863 33.0718 27.5 32.1391 27.5 31.1667V23.8333C27.5 22.8609 27.8863 21.9282 28.5739 21.2406C29.2616 20.553 30.1942 20.1667 31.1667 20.1667H36.553C36.1056 16.6226 34.3804 13.3637 31.7009 11.0012C29.0215 8.63881 25.5722 7.33531 22 7.33531C18.4278 7.33531 14.9785 8.63881 12.299 11.0012C9.61964 13.3637 7.89439 16.6226 7.447 20.1667H12.8333C13.8058 20.1667 14.7384 20.553 15.4261 21.2406C16.1137 21.9282 16.5 22.8609 16.5 23.8333V31.1667C16.5 32.1391 16.1137 33.0718 15.4261 33.7594C14.7384 34.447 13.8058 34.8333 12.8333 34.8333H7.33333C6.36087 34.8333 5.42824 34.447 4.74061 33.7594C4.05297 33.0718 3.66666 32.1391 3.66666 31.1667V22C3.66666 11.8745 11.8745 3.66667 22 3.66667C32.1255 3.66667 40.3333 11.8745 40.3333 22V31.1703Z" fill="white"/>
</g>
</svg>
