<svg width="33" height="33" viewBox="0 0 33 33" fill="none" xmlns="http://www.w3.org/2000/svg">
<g id="Frame 1116606955">
<path id="Vector" fill-rule="evenodd" clip-rule="evenodd" d="M29.2635 19.4474C28.6997 27.0216 22.3696 33 14.6517 33C6.5653 33 0 26.4344 0 18.3476C0 10.6311 5.97772 4.29901 13.5519 3.73652V0H14.6519C24.7851 0 33 8.2156 33 18.349V19.449H29.2637L29.2635 19.4474ZM29.3036 17.2474H30.7628C30.2212 9.20481 23.7928 2.7761 15.7517 2.23554V3.69484V5.89487V7.47024C20.9101 7.98568 25.0115 12.0887 25.5269 17.2474H27.1036L29.3036 17.2474ZM14.6518 12.3194C17.9793 12.3194 20.6794 15.0197 20.6794 18.3473C20.6794 21.6749 17.9779 24.3752 14.6518 24.3752C11.3244 24.3752 8.62425 21.6735 8.62425 18.3473C8.62425 15.0197 11.3244 12.3194 14.6518 12.3194ZM14.6518 14.5194C12.539 14.5194 10.8242 16.2344 10.8242 18.3472C10.8242 20.4602 12.5391 22.175 14.6518 22.175C16.7647 22.175 18.4795 20.46 18.4795 18.3472C18.4795 16.2342 16.7646 14.5194 14.6518 14.5194ZM15.8845 17.116V19.58H13.4206V17.116H15.8845ZM18.3718 6.46153L17.3215 6.13264L17.9793 4.03351L19.0295 4.36241C23.5993 5.7927 27.2087 9.40221 28.6389 13.9722L28.9678 15.0225L26.8687 15.6789L26.5399 14.6286C25.3238 10.7453 22.2563 7.67776 18.3731 6.4615L18.3718 6.46153Z" fill="#1E2749"/>
</g>
</svg>
