<svg width="32" height="33" viewBox="0 0 32 33" fill="none" xmlns="http://www.w3.org/2000/svg">
<g id="Group">
<path id="Vector" d="M12 1.83325V4.49992H20V1.83325H22.6667V4.49992H28C28.3536 4.49992 28.6927 4.64039 28.9428 4.89044C29.1928 5.14049 29.3333 5.47963 29.3333 5.83325V27.1666C29.3333 27.5202 29.1928 27.8593 28.9428 28.1094C28.6927 28.3594 28.3536 28.4999 28 28.4999H3.99999C3.64637 28.4999 3.30723 28.3594 3.05718 28.1094C2.80713 27.8593 2.66666 27.5202 2.66666 27.1666V5.83325C2.66666 5.47963 2.80713 5.14049 3.05718 4.89044C3.30723 4.64039 3.64637 4.49992 3.99999 4.49992H9.33332V1.83325H12ZM26.6667 11.1666H5.33332V25.8333H26.6667V11.1666ZM20.048 14.0146L21.9333 15.8999L15.3333 22.4999L10.6187 17.7853L12.5067 15.8999L15.3347 18.7292L20.0493 14.0146H20.048Z" fill="#1E2749"/>
</g>
</svg>
