<svg width="32" height="33" viewBox="0 0 32 33" fill="none" xmlns="http://www.w3.org/2000/svg">
<g id="Group">
<path id="Vector" d="M24.4853 23.652L16 32.1373L7.51467 23.652C5.83646 21.9737 4.69358 19.8355 4.23057 17.5078C3.76756 15.18 4.00521 12.7672 4.91346 10.5745C5.82172 8.38181 7.35979 6.50767 9.33318 5.1891C11.3066 3.87053 13.6266 3.16675 16 3.16675C18.3734 3.16675 20.6934 3.87053 22.6668 5.1891C24.6402 6.50767 26.1783 8.38181 27.0865 10.5745C27.9948 12.7672 28.2324 15.18 27.7694 17.5078C27.3064 19.8355 26.1636 21.9737 24.4853 23.652ZM16 20.5C17.4145 20.5 18.771 19.9381 19.7712 18.9379C20.7714 17.9377 21.3333 16.5811 21.3333 15.1666C21.3333 13.7522 20.7714 12.3956 19.7712 11.3954C18.771 10.3952 17.4145 9.83331 16 9.83331C14.5855 9.83331 13.229 10.3952 12.2288 11.3954C11.2286 12.3956 10.6667 13.7522 10.6667 15.1666C10.6667 16.5811 11.2286 17.9377 12.2288 18.9379C13.229 19.9381 14.5855 20.5 16 20.5ZM16 17.8333C15.2928 17.8333 14.6145 17.5524 14.1144 17.0523C13.6143 16.5522 13.3333 15.8739 13.3333 15.1666C13.3333 14.4594 13.6143 13.7811 14.1144 13.281C14.6145 12.7809 15.2928 12.5 16 12.5C16.7072 12.5 17.3855 12.7809 17.8856 13.281C18.3857 13.7811 18.6667 14.4594 18.6667 15.1666C18.6667 15.8739 18.3857 16.5522 17.8856 17.0523C17.3855 17.5524 16.7072 17.8333 16 17.8333Z" fill="#1E2749"/>
</g>
</svg>
