<svg width="28" height="35" viewBox="0 0 28 35" fill="none" xmlns="http://www.w3.org/2000/svg">
<g id="Frame 1116606954">
<path id="Vector" d="M0 12.2087V14.3649C4.41769e-05 14.4675 0.0320764 14.5676 0.0917409 14.6515C0.151405 14.7355 0.235805 14.7992 0.33345 14.8341L4.32374 16.2706V10.302L0.33345 11.7395C0.235805 11.7744 0.151405 11.8381 0.0917409 11.9221C0.0320764 12.006 4.41769e-05 12.1061 0 12.2087Z" fill="#1E2749"/>
<path id="Vector_2" d="M27.899 15.6227L23.9178 10.3519C23.8719 10.2886 23.8112 10.2374 23.7407 10.2026C23.6703 10.1678 23.5923 10.1505 23.5136 10.1522H5.3345V16.4213H13.5192C13.6704 17.0711 13.6 17.7521 13.3189 18.3583C13.0379 18.9646 12.5619 19.462 11.9651 19.7734C11.8762 19.8338 11.8092 19.9207 11.7739 20.0214C11.7386 20.1221 11.7369 20.2314 11.769 20.3331C11.8011 20.4349 11.8653 20.5238 11.9522 20.5869C12.0391 20.65 12.1442 20.684 12.2521 20.6838C12.3552 20.684 12.4558 20.6526 12.5401 20.594C13.267 20.1852 13.8493 19.5656 14.2081 18.8191C14.5668 18.0726 14.6847 17.2352 14.5458 16.4203H16.4202L19.2899 24.5162C19.3224 24.6152 19.386 24.7014 19.4713 24.7624C19.5567 24.8234 19.6595 24.856 19.7648 24.8556H21.5553V27.6587C21.5545 28.3082 21.293 28.9308 20.8282 29.39C20.3633 29.8493 19.7331 30.1076 19.0757 30.1084H16.0857C15.4465 30.1339 14.842 30.4028 14.3988 30.8586C13.9556 31.3145 13.7082 31.9221 13.7082 32.5542C13.7082 33.1862 13.9556 33.7938 14.3988 34.2497C14.842 34.7055 15.4465 34.9744 16.0857 34.9999H25.0444C25.1784 34.9999 25.3069 34.9473 25.4017 34.8537C25.4964 34.7601 25.5497 34.6331 25.5497 34.5008C25.5497 34.3684 25.4964 34.2414 25.4017 34.1478C25.3069 34.0542 25.1784 34.0016 25.0444 34.0016H16.0857C15.7105 33.9821 15.3571 33.8211 15.0984 33.5518C14.8397 33.2825 14.6955 32.9254 14.6955 32.5542C14.6955 32.1829 14.8397 31.8258 15.0984 31.5565C15.3571 31.2871 15.7105 31.1262 16.0857 31.1067H19.0757C20.0011 31.1059 20.8883 30.7424 21.5427 30.0959C22.197 29.4495 22.565 28.5729 22.5658 27.6587V24.8566H24.6655C24.7462 24.8553 24.8255 24.8358 24.8974 24.7994C24.9692 24.7631 25.0316 24.7109 25.0798 24.6469C25.1265 24.5827 25.1564 24.5082 25.167 24.4298C25.1776 24.3515 25.1684 24.2718 25.1404 24.1977L22.392 16.4213H27.4948C27.5886 16.4213 27.6806 16.3955 27.7604 16.3467C27.8402 16.298 27.9047 16.2283 27.9467 16.1454C27.9886 16.0625 28.0064 15.9696 27.998 15.8773C27.9895 15.785 27.9553 15.6968 27.899 15.6227Z" fill="#1E2749"/>
<path id="Vector_3" d="M11.4893 8.04497V9.15404H14.8339V8.04497C15.3937 7.91949 15.894 7.61061 16.2536 7.16856C16.6132 6.72652 16.8108 6.1773 16.8144 5.61022V0.49913C16.8144 0.366752 16.7611 0.239796 16.6664 0.146191C16.5716 0.0525863 16.4431 0 16.3091 0H10.0039C9.86989 0 9.74138 0.0525863 9.64663 0.146191C9.55189 0.239796 9.49866 0.366752 9.49866 0.49913V5.61022C9.50274 6.17867 9.70182 6.72895 10.0634 7.17118C10.4249 7.61341 10.9276 7.92144 11.4893 8.04497Z" fill="#1E2749"/>
</g>
</svg>
