<svg width="36" height="36" viewBox="0 0 36 36" fill="none" xmlns="http://www.w3.org/2000/svg">
<path d="M1.5752 31.5V27.3C1.5752 26.475 1.7877 25.7 2.2127 24.975C2.6377 24.25 3.2252 23.7 3.9752 23.325C5.2502 22.675 6.6877 22.125 8.2877 21.675C9.8877 21.225 11.6502 21 13.5752 21C15.5002 21 17.2627 21.225 18.8627 21.675C20.4627 22.125 21.9002 22.675 23.1752 23.325C23.9252 23.7 24.5127 24.25 24.9377 24.975C25.3627 25.7 25.5752 26.475 25.5752 27.3V31.5H1.5752ZM13.5752 19.5C11.9252 19.5 10.5127 18.9125 9.3377 17.7375C8.1627 16.5625 7.5752 15.15 7.5752 13.5H7.2002C6.9752 13.5 6.7942 13.4315 6.6572 13.2945C6.5202 13.1575 6.4512 12.976 6.4502 12.75C6.4492 12.524 6.5182 12.3425 6.6572 12.2055C6.7962 12.0685 6.9772 12 7.2002 12H7.5752C7.5752 10.875 7.8502 9.8625 8.4002 8.9625C8.9502 8.0625 9.6752 7.35 10.5752 6.825V8.25C10.5752 8.475 10.6442 8.6565 10.7822 8.7945C10.9202 8.9325 11.1012 9.001 11.3252 9C11.5492 8.999 11.7307 8.9305 11.8697 8.7945C12.0087 8.6585 12.0772 8.477 12.0752 8.25V6.225C12.3002 6.15 12.5377 6.094 12.7877 6.057C13.0377 6.02 13.3002 6.001 13.5752 6C13.8502 5.999 14.1127 6.018 14.3627 6.057C14.6127 6.096 14.8502 6.152 15.0752 6.225V8.25C15.0752 8.475 15.1442 8.6565 15.2822 8.7945C15.4202 8.9325 15.6012 9.001 15.8252 9C16.0492 8.999 16.2307 8.9305 16.3697 8.7945C16.5087 8.6585 16.5772 8.477 16.5752 8.25V6.825C17.4752 7.35 18.2002 8.0625 18.7502 8.9625C19.3002 9.8625 19.5752 10.875 19.5752 12H19.9502C20.1752 12 20.3567 12.069 20.4947 12.207C20.6327 12.345 20.7012 12.526 20.7002 12.75C20.6992 12.974 20.6307 13.1555 20.4947 13.2945C20.3587 13.4335 20.1772 13.502 19.9502 13.5H19.5752C19.5752 15.15 18.9877 16.5625 17.8127 17.7375C16.6377 18.9125 15.2252 19.5 13.5752 19.5ZM13.5752 16.5C14.4002 16.5 15.1067 16.2065 15.6947 15.6195C16.2827 15.0325 16.5762 14.326 16.5752 13.5H10.5752C10.5752 14.325 10.8692 15.0315 11.4572 15.6195C12.0452 16.2075 12.7512 16.501 13.5752 16.5ZM24.8252 22.5L24.6002 21.375C24.4502 21.325 24.3067 21.269 24.1697 21.207C24.0327 21.145 23.9012 21.051 23.7752 20.925L22.7252 21.3L21.9752 19.95L22.8002 19.2V18.3L21.9752 17.55L22.7252 16.2L23.7752 16.575C23.8752 16.475 24.0002 16.3875 24.1502 16.3125C24.3002 16.2375 24.4502 16.175 24.6002 16.125L24.8252 15H26.3252L26.5502 16.125C26.7002 16.175 26.8502 16.2375 27.0002 16.3125C27.1502 16.3875 27.2752 16.475 27.3752 16.575L28.4252 16.2L29.1752 17.55L28.3502 18.3V19.2L29.1752 19.95L28.4252 21.3L27.3752 20.925C27.2502 21.05 27.1192 21.144 26.9822 21.207C26.8452 21.27 26.7012 21.326 26.5502 21.375L26.3252 22.5H24.8252ZM25.5752 19.875C25.8752 19.875 26.1377 19.7625 26.3627 19.5375C26.5877 19.3125 26.7002 19.05 26.7002 18.75C26.7002 18.45 26.5877 18.1875 26.3627 17.9625C26.1377 17.7375 25.8752 17.625 25.5752 17.625C25.2752 17.625 25.0127 17.7375 24.7877 17.9625C24.5627 18.1875 24.4502 18.45 24.4502 18.75C24.4502 19.05 24.5627 19.3125 24.7877 19.5375C25.0127 19.7625 25.2752 19.875 25.5752 19.875ZM28.2752 15L27.9752 13.425C27.7502 13.35 27.5442 13.2565 27.3572 13.1445C27.1702 13.0325 27.0012 12.901 26.8502 12.75L25.2752 13.275L24.2252 11.475L25.5002 10.35C25.4502 10.225 25.4252 10.125 25.4252 10.05V9.45C25.4252 9.375 25.4502 9.275 25.5002 9.15L24.2252 8.025L25.2752 6.225L26.8502 6.75C27.0002 6.6 27.1692 6.4685 27.3572 6.3555C27.5452 6.2425 27.7512 6.149 27.9752 6.075L28.2752 4.5H30.3752L30.6752 6.075C30.9002 6.15 31.1067 6.244 31.2947 6.357C31.4827 6.47 31.6512 6.601 31.8002 6.75L33.3752 6.225L34.4252 8.025L33.1502 9.15C33.2002 9.275 33.2252 9.375 33.2252 9.45V10.05C33.2252 10.125 33.2002 10.225 33.1502 10.35L34.4252 11.475L33.3752 13.275L31.8002 12.75C31.6502 12.9 31.4817 13.0315 31.2947 13.1445C31.1077 13.2575 30.9012 13.351 30.6752 13.425L30.3752 15H28.2752ZM29.3252 11.625C29.8502 11.625 30.2942 11.4435 30.6572 11.0805C31.0202 10.7175 31.2012 10.274 31.2002 9.75C31.1992 9.226 31.0177 8.782 30.6557 8.418C30.2937 8.054 29.8502 7.873 29.3252 7.875C28.8002 7.877 28.3562 8.0585 27.9932 8.4195C27.6302 8.7805 27.4492 9.224 27.4502 9.75C27.4512 10.276 27.6327 10.72 27.9947 11.082C28.3567 11.444 28.8002 11.625 29.3252 11.625Z" fill="#1E2749"/>
</svg>
