<svg width="110" height="110" viewBox="0 0 110 110" fill="none" xmlns="http://www.w3.org/2000/svg">
<path d="M50.4167 99.5728V57.6353L13.75 36.4373V73.2186C13.75 74.8991 14.1518 76.4269 14.9554 77.8019C15.759 79.1769 16.885 80.2846 18.3333 81.1248L50.4167 99.5728ZM59.5833 99.5728L91.6667 81.1248C93.1181 80.2846 94.2456 79.1769 95.0492 77.8019C95.8528 76.4269 96.253 74.8991 96.25 73.2186V36.4373L59.5833 57.6353V99.5728ZM77.8021 36.5519L91.3229 28.6457L59.5833 10.4269C58.1319 9.58664 56.6042 9.1665 55 9.1665C53.3958 9.1665 51.8681 9.58664 50.4167 10.4269L41.3646 15.5832L77.8021 36.5519ZM55 49.729L68.6354 41.9373L32.3125 20.854L18.5625 28.7603L55 49.729Z" fill="black"/>
</svg>
