<svg width="110" height="110" viewBox="0 0 110 110" fill="none" xmlns="http://www.w3.org/2000/svg">
<path d="M22.9167 96.2502C20.3958 96.2502 18.2386 95.3534 16.445 93.5597C14.6514 91.7661 13.7531 89.6074 13.75 87.0835V22.9168C13.75 20.396 14.6483 18.2388 16.445 16.4452C18.2417 14.6516 20.3989 13.7532 22.9167 13.7502H42.1667C43.1597 11.0002 44.8219 8.78488 47.1533 7.10433C49.4847 5.42377 52.1003 4.5835 55 4.5835C57.8997 4.5835 60.5168 5.42377 62.8513 7.10433C65.1857 8.78488 66.8464 11.0002 67.8333 13.7502H87.0833C89.6042 13.7502 91.7629 14.6485 93.5596 16.4452C95.3563 18.2418 96.2531 20.3991 96.25 22.9168V87.0835C96.25 89.6043 95.3532 91.7631 93.5596 93.5597C91.766 95.3564 89.6072 96.2532 87.0833 96.2502H22.9167ZM22.9167 87.0835H87.0833V22.9168H22.9167V87.0835ZM32.0833 77.9168H64.1667V68.7502H32.0833V77.9168ZM32.0833 59.5835H77.9167V50.4168H32.0833V59.5835ZM32.0833 41.2502H77.9167V32.0835H32.0833V41.2502ZM55 19.4793C55.9931 19.4793 56.815 19.1539 57.4658 18.5031C58.1167 17.8522 58.4406 17.0318 58.4375 16.0418C58.4344 15.0518 58.109 14.2314 57.4613 13.5806C56.8135 12.9297 55.9931 12.6043 55 12.6043C54.0069 12.6043 53.1865 12.9297 52.5388 13.5806C51.891 14.2314 51.5656 15.0518 51.5625 16.0418C51.5594 17.0318 51.8849 17.8538 52.5388 18.5077C53.1926 19.1616 54.0131 19.4854 55 19.4793Z" fill="black"/>
</svg>
