<svg width="110" height="110" viewBox="0 0 110 110" fill="none" xmlns="http://www.w3.org/2000/svg">
<path d="M80.4377 55.0002L64.1668 38.7293L70.6981 32.3127L80.4377 42.0522L99.9168 22.5731L106.334 29.1043L80.4377 55.0002ZM41.2502 55.0002C36.2085 55.0002 31.8925 53.205 28.3023 49.6147C24.712 46.0245 22.9168 41.7085 22.9168 36.6668C22.9168 31.6252 24.712 27.3092 28.3023 23.7189C31.8925 20.1286 36.2085 18.3335 41.2502 18.3335C46.2918 18.3335 50.6078 20.1286 54.1981 23.7189C57.7884 27.3092 59.5835 31.6252 59.5835 36.6668C59.5835 41.7085 57.7884 46.0245 54.1981 49.6147C50.6078 53.205 46.2918 55.0002 41.2502 55.0002ZM4.5835 91.6668V78.8335C4.5835 76.2363 5.25266 73.8499 6.591 71.6743C7.92933 69.4988 9.70461 67.8365 11.9168 66.6877C16.6529 64.3196 21.4654 62.5443 26.3543 61.3618C31.2432 60.1793 36.2085 59.5865 41.2502 59.5835C46.2918 59.5804 51.2571 60.1732 56.146 61.3618C61.0349 62.5504 65.8474 64.3257 70.5835 66.6877C72.7988 67.8335 74.5756 69.4957 75.9139 71.6743C77.2523 73.8529 77.9199 76.2393 77.9168 78.8335V91.6668H4.5835Z" fill="black"/>
</svg>
