<svg width="110" height="110" viewBox="0 0 110 110" fill="none" xmlns="http://www.w3.org/2000/svg">
<path d="M24.429 14.9964C27.2887 13.9766 30.3791 13.7893 33.3411 14.4563C36.3031 15.1233 39.015 16.6171 41.1616 18.7642C43.3082 20.9113 44.8015 23.6235 45.4678 26.5857C46.1341 29.5478 45.9461 32.6382 44.9256 35.4977L94.6319 85.2039L84.9061 94.9298L35.1998 45.2235C32.3396 46.2439 29.2485 46.4314 26.2859 45.7644C23.3233 45.0973 20.6109 43.603 18.464 41.4551C16.3172 39.3073 14.8241 36.5943 14.1583 33.6314C13.4926 30.6685 13.6815 27.5775 14.7031 24.7177L24.9515 34.9706C26.2481 36.2229 27.9847 36.9159 29.7874 36.9002C31.59 36.8846 33.3143 36.1615 34.589 34.8869C35.8637 33.6122 36.5867 31.8878 36.6024 30.0852C36.618 28.2826 35.9251 26.546 34.6727 25.2494L24.429 14.9964ZM71.9444 23.6269L86.5286 15.5235L93.0094 22.0089L84.9061 36.5931L76.8027 38.211L67.0861 47.9323L60.6006 41.4514L70.3219 31.7302L71.9444 23.6269ZM39.5356 59.276L49.2569 69.0019L26.5694 91.6894C25.3183 92.9287 23.6393 93.6408 21.8787 93.6786C20.1181 93.7165 18.4101 93.0773 17.1069 91.8928C15.8037 90.7084 15.0047 89.069 14.8747 87.3128C14.7447 85.5565 15.2936 83.8174 16.4081 82.4539L16.8527 81.9635L39.5356 59.276Z" fill="black"/>
</svg>
