<svg width="156" height="28" viewBox="0 0 156 28" fill="none" xmlns="http://www.w3.org/2000/svg">
<path d="M13.7573 20.0417L20.8423 24.3179L18.9622 16.2585L25.2217 10.8358L16.9788 10.1365L13.7573 2.53564L10.5358 10.1365L2.29297 10.8358L8.55251 16.2585L6.67236 24.3179L13.7573 20.0417Z" fill="#F8A401"/>
<path d="M45.8579 20.0417L52.9429 24.3179L51.0627 16.2585L57.3223 10.8358L49.0794 10.1365L45.8579 2.53564L42.6364 10.1365L34.3936 10.8358L40.6531 16.2585L38.7729 24.3179L45.8579 20.0417Z" fill="#F8A401"/>
<path d="M77.9575 20.0417L85.0425 24.3179L83.1624 16.2585L89.4219 10.8358L81.179 10.1365L77.9575 2.53564L74.736 10.1365L66.4932 10.8358L72.7527 16.2585L70.8726 24.3179L77.9575 20.0417Z" fill="#F8A401"/>
<path d="M110.058 20.0417L117.143 24.3179L115.263 16.2585L121.522 10.8358L113.28 10.1365L110.058 2.53564L106.837 10.1365L98.5938 10.8358L104.853 16.2585L102.973 24.3179L110.058 20.0417Z" fill="#F8A401"/>
<path d="M153.623 10.8358L145.38 10.1251L142.159 2.53564L138.937 10.1365L130.694 10.8358L136.954 16.2585L135.074 24.3179L142.159 20.0417L149.244 24.3179L147.375 16.2585L153.623 10.8358ZM142.159 17.8979L137.848 20.5003L138.995 15.5936L135.188 12.2918L140.21 11.8562L142.159 7.23604L144.119 11.8676L149.141 12.3033L145.334 15.605L146.481 20.5118L142.159 17.8979Z" fill="#F8A401"/>
</svg>
