<svg width="35" height="34" viewBox="0 0 35 34" fill="none" xmlns="http://www.w3.org/2000/svg">
<g id="Group">
<path id="Vector" d="M3.80046 12.7499H8.05046V29.7499H3.80046C3.42473 29.7499 3.0644 29.6007 2.79872 29.335C2.53304 29.0693 2.38379 28.709 2.38379 28.3332V14.1666C2.38379 13.7909 2.53304 13.4305 2.79872 13.1648C3.0644 12.8992 3.42473 12.7499 3.80046 12.7499ZM11.2989 10.9182L20.3655 1.8515C20.486 1.73065 20.6461 1.65737 20.8164 1.64513C20.9866 1.6329 21.1555 1.68254 21.292 1.78491L22.5005 2.69158C22.8361 2.94353 23.0896 3.28921 23.229 3.68503C23.3684 4.08085 23.3875 4.50909 23.2839 4.91575L21.6505 11.3332H30.7171C31.4686 11.3332 32.1892 11.6318 32.7206 12.1631C33.2519 12.6945 33.5505 13.4151 33.5505 14.1666V17.1472C33.5508 17.5175 33.4786 17.8843 33.338 18.2267L28.9534 28.873C28.8464 29.1326 28.6648 29.3545 28.4314 29.5106C28.1981 29.6667 27.9237 29.75 27.643 29.7499H12.3005C11.9247 29.7499 11.5644 29.6007 11.2987 29.335C11.033 29.0693 10.8838 28.709 10.8838 28.3332V11.9197C10.8839 11.5441 11.0332 11.1838 11.2989 10.9182Z" fill="white"/>
</g>
</svg>
