<svg width="36" height="36" viewBox="0 0 36 36" fill="none" xmlns="http://www.w3.org/2000/svg">
<g id="Group">
<path id="Vector" d="M25.5 22.8675V33.1755C25.5 33.3082 25.4648 33.4385 25.3981 33.5532C25.3313 33.6678 25.2352 33.7627 25.1198 33.8281C25.0043 33.8936 24.8736 33.9272 24.7409 33.9256C24.6082 33.924 24.4783 33.8872 24.3645 33.819L18 30L11.6355 33.819C11.5216 33.8872 11.3915 33.924 11.2587 33.9256C11.1259 33.9271 10.9951 33.8934 10.8796 33.8278C10.7641 33.7622 10.6681 33.667 10.6014 33.5522C10.5347 33.4373 10.4997 33.3068 10.5 33.174V22.869C8.55922 21.3151 7.14899 19.1968 6.46419 16.8068C5.77939 14.4168 5.85383 11.873 6.67724 9.52717C7.50064 7.1813 9.03234 5.14908 11.0607 3.71138C13.089 2.27368 15.5138 1.50146 18 1.50146C20.4862 1.50146 22.911 2.27368 24.9393 3.71138C26.9677 5.14908 28.4994 7.1813 29.3228 9.52717C30.1462 11.873 30.2206 14.4168 29.5358 16.8068C28.851 19.1968 27.4408 21.3151 25.5 22.869V22.8675ZM18 22.5C20.3869 22.5 22.6761 21.5518 24.364 19.8639C26.0518 18.1761 27 15.8869 27 13.5C27 11.113 26.0518 8.82383 24.364 7.136C22.6761 5.44817 20.3869 4.49996 18 4.49996C15.6131 4.49996 13.3239 5.44817 11.636 7.136C9.94821 8.82383 9 11.113 9 13.5C9 15.8869 9.94821 18.1761 11.636 19.8639C13.3239 21.5518 15.6131 22.5 18 22.5ZM18 19.5C16.4087 19.5 14.8826 18.8678 13.7574 17.7426C12.6321 16.6174 12 15.0913 12 13.5C12 11.9087 12.6321 10.3825 13.7574 9.25732C14.8826 8.1321 16.4087 7.49996 18 7.49996C19.5913 7.49996 21.1174 8.1321 22.2426 9.25732C23.3679 10.3825 24 11.9087 24 13.5C24 15.0913 23.3679 16.6174 22.2426 17.7426C21.1174 18.8678 19.5913 19.5 18 19.5Z" fill="white"/>
</g>
</svg>
