<svg width="63" height="62" viewBox="0 0 63 62" fill="none" xmlns="http://www.w3.org/2000/svg">
<rect x="0.666626" width="62" height="62" rx="5" fill="#E4E9F5"/>
<g clip-path="url(#clip0_2079_2824)">
<path d="M31.6667 32.9163C34.8426 32.9163 37.4167 35.4904 37.4167 38.6663C37.4167 40.2955 36.7401 41.7637 35.6533 42.8102L31.9925 46.333H37.4167V50.1663H25.9167V46.862L32.9949 40.0483C33.3591 39.6975 33.5833 39.2088 33.5833 38.6663C33.5833 37.6083 32.7247 36.7497 31.6667 36.7497C30.6087 36.7497 29.75 37.6083 29.75 38.6663H25.9167C25.9167 35.4904 28.4908 32.9163 31.6667 32.9163ZM43.1667 32.9163V40.583H47V32.9163H50.8333V50.1663H47V44.4163H39.3333V32.9163H43.1667ZM16.3333 30.9997C16.3333 35.8431 18.5778 40.1613 22.0833 42.9712V47.6018C16.3544 44.2879 12.5 38.0952 12.5 30.9997H16.3333ZM31.6667 11.833C41.6046 11.833 49.7773 19.3981 50.7375 29.083H46.8812C45.9382 21.5198 39.4867 15.6663 31.6667 15.6663C26.944 15.6663 22.7197 17.8015 19.9079 21.1576L24 25.2497H12.5V13.7497L17.1901 18.4378C20.7033 14.3937 25.886 11.833 31.6667 11.833Z" fill="#09244B"/>
</g>
<defs>
<clipPath id="clip0_2079_2824">
<rect width="46" height="46" fill="white" transform="translate(8.66663 8)"/>
</clipPath>
</defs>
</svg>
