<svg width="59" height="58" viewBox="0 0 59 58" fill="none" xmlns="http://www.w3.org/2000/svg">
<rect x="0.810425" width="57.3793" height="57.3771" rx="5" fill="#E4E9F5"/>
<path d="M48.1897 22.9371C48.1918 25.0887 47.6573 27.2069 46.6346 29.0999C45.6118 30.9929 44.1331 32.6009 42.3323 33.7784C40.5315 34.9558 38.4654 35.6656 36.3212 35.8434C34.1769 36.0212 32.0222 35.6613 30.052 34.7965L20.6975 45.6173C20.6759 45.6425 20.6508 45.6694 20.6274 45.6928C19.549 46.7712 18.0863 47.3771 16.5611 47.3771C15.0359 47.3771 13.5732 46.7712 12.4948 45.6928C11.4163 44.6143 10.8104 43.1516 10.8104 41.6264C10.8104 40.1013 11.4163 38.6386 12.4948 37.5601C12.5199 37.5368 12.5451 37.5116 12.572 37.49L23.3928 28.1373C22.4233 25.9196 22.0947 23.4746 22.4443 21.0797C22.7939 18.6847 23.8076 16.4356 25.3706 14.5876C26.9335 12.7395 28.983 11.3665 31.2867 10.6241C33.5904 9.88181 36.056 9.79992 38.4039 10.3878C38.6459 10.4484 38.868 10.571 39.0483 10.7436C39.2285 10.9161 39.3608 11.1325 39.4321 11.3717C39.5033 11.6108 39.5111 11.8643 39.4546 12.1074C39.3982 12.3504 39.2794 12.5746 39.1101 12.7578L32.3772 20.0621L33.3942 24.7969L38.1272 25.8121L45.4315 19.0703C45.6147 18.9009 45.8389 18.7822 46.0819 18.7257C46.325 18.6692 46.5785 18.677 46.8177 18.7483C47.0568 18.8195 47.2733 18.9518 47.4458 19.1321C47.6183 19.3123 47.7409 19.5344 47.8016 19.7764C48.0595 20.8102 48.1899 21.8717 48.1897 22.9371Z" fill="#1E2749"/>
</svg>
