<svg width="59" height="58" viewBox="0 0 59 58" fill="none" xmlns="http://www.w3.org/2000/svg">
<rect x="0.5" width="58" height="58" rx="5" fill="#E4E9F5"/>
<path d="M23.9801 29.0747L19.4801 27.5747C19.0751 27.4397 18.6401 27.4847 18.2801 27.6797C17.9051 27.8897 17.6501 28.2346 17.5451 28.6397L16.0451 34.6397C15.9401 35.0447 16.0151 35.4797 16.2551 35.8247L19.2551 40.3247C19.5401 40.7597 20.0201 40.9997 20.5001 40.9997C20.7851 40.9997 21.0701 40.9247 21.3251 40.7447L25.8252 37.7447C26.4552 37.3247 26.6801 36.4997 26.3352 35.8247L25.0002 33.1397V30.4996C25.0002 29.8546 24.5801 29.2847 23.9801 29.0747Z" fill="#1E2749"/>
<path d="M49.675 32.1648L40.675 27.6648C40.255 27.4398 39.745 27.4398 39.325 27.6648L30.325 32.1648C29.815 32.4048 29.5 32.9299 29.5 33.4998V43.9998C29.5 44.5698 29.815 45.0948 30.325 45.3348L39.325 49.8348C39.34 49.8498 39.355 49.8498 39.37 49.8498C39.565 49.9398 39.775 49.9998 40 49.9998C40.225 49.9998 40.435 49.9398 40.63 49.8498C40.645 49.8498 40.66 49.8498 40.675 49.8348L49.675 45.3348C50.185 45.0948 50.5001 44.5698 50.5001 43.9998V33.4998C50.5001 32.9298 50.1851 32.4048 49.675 32.1648ZM40.0002 37.8197L32.8601 34.2497L40.0002 30.6797L47.1402 34.2497L40.0002 37.8197Z" fill="#1E2749"/>
<path d="M26.7252 46.7896C18.0401 45.4546 11.5001 37.8045 11.5001 28.9999C11.5001 27.5898 11.6801 26.2398 11.9801 24.9198L13.8251 25.8348C14.0501 25.9548 14.2751 25.9998 14.5001 25.9998C14.8901 25.9998 15.2651 25.8498 15.5651 25.5648L19.3001 21.8298L24.3252 24.3349C24.9102 24.6199 25.6002 24.5149 26.0652 24.0649L30.5652 19.5649C31.1502 18.9798 31.1502 18.0198 30.5652 17.4349L28.1652 15.0349L29.1702 11.0149C29.2752 11.0149 29.3802 10.9999 29.5002 10.9999C33.2502 10.9999 36.7751 12.1999 39.7151 14.2249L39.0701 15.4999H37.0001C36.1751 15.4999 35.5001 16.1748 35.5001 16.9999V21.4999C35.5001 22.1449 35.9201 22.7148 36.5201 22.9249L41.0201 24.4249C41.1851 24.4699 41.3351 24.4999 41.5001 24.4999C41.6651 24.4999 41.8151 24.4699 41.9801 24.4249L46.4351 22.9399C46.8251 23.9899 47.11 25.0849 47.29 26.2249C47.41 27.0499 48.1751 27.6049 49 27.4849C49.81 27.3499 50.38 26.5849 50.2451 25.7749C48.6701 15.4698 39.9399 8 29.4999 8C29.1249 8 28.7649 8.03 28.3899 8.06C28.3749 8.06 28.3749 8.045 28.3599 8.045C28.0749 7.97 27.8049 8.015 27.5349 8.105C16.8698 9.095 8.5 18.0799 8.5 28.9999C8.5 39.4399 15.9698 48.1702 26.2749 49.7599C26.3499 49.7599 26.4249 49.7749 26.4999 49.7749C27.2349 49.7749 27.8649 49.2349 27.9849 48.4999C28.1049 47.6749 27.5502 46.9096 26.7252 46.7896Z" fill="#1E2749"/>
</svg>
