<svg width="20" height="21" viewBox="0 0 20 21" fill="none" xmlns="http://www.w3.org/2000/svg">
<path d="M19.7627 9.88205C19.5236 10.855 19.0938 11.7708 18.4981 12.5764C17.9025 13.382 17.1528 14.0614 16.2927 14.5751C15.4332 15.0881 14.4804 15.4255 13.4896 15.5674C12.4988 15.7094 11.4896 15.6532 10.5207 15.4021C10.3014 15.3421 10.07 15.3421 9.85067 15.4021C9.63581 15.4511 9.4386 15.5583 9.28067 15.7121L5.01467 20.0021C4.85144 20.1576 4.66182 20.2829 4.45467 20.3721C4.24273 20.4601 4.01516 20.5043 3.78567 20.5021C3.55942 20.5044 3.3351 20.4601 3.12667 20.3721C2.91846 20.2849 2.72849 20.1594 2.56667 20.0021L0.499672 17.9321C0.338133 17.7736 0.212025 17.5828 0.129672 17.3721C-0.0432241 16.9456 -0.0432241 16.4685 0.129672 16.0421C0.212025 15.8313 0.338133 15.6405 0.499672 15.4821L4.77667 11.2021C4.9337 11.0491 5.04458 10.855 5.09667 10.6421C5.15667 10.4331 5.15667 10.2121 5.09667 10.0021C4.75397 8.68895 4.7696 7.30797 5.14193 6.00296C5.51427 4.69795 6.22968 3.51664 7.21367 2.58205C8.18929 1.65262 9.39729 1.0032 10.7107 0.702051C12.0317 0.385749 13.4141 0.437629 14.7077 0.852051C14.8318 0.888206 14.9443 0.956256 15.034 1.04942C15.1236 1.14259 15.1873 1.25762 15.2187 1.38306C15.25 1.50849 15.248 1.63996 15.2127 1.76435C15.1774 1.88875 15.1102 2.00173 15.0177 2.09205L12.0997 5.02205C11.7463 5.40739 11.547 5.90925 11.5397 6.43205C11.5268 6.66114 11.6019 6.8865 11.7497 7.06205L13.4687 8.79205C13.5981 8.88652 13.7466 8.95158 13.9038 8.98267C14.061 9.01376 14.223 9.01014 14.3787 8.97205C14.8026 8.91372 15.1992 8.72903 15.5167 8.44205L18.4347 5.51205C18.5273 5.42273 18.6407 5.35772 18.7645 5.32282C18.8884 5.28792 19.019 5.28422 19.1447 5.31205C19.271 5.34301 19.3872 5.40631 19.4817 5.49572C19.5762 5.58514 19.6458 5.6976 19.6837 5.82205C20.0781 7.14308 20.1047 8.54651 19.7627 9.88205Z" fill="white"/>
</svg>
